# xmcd
#
# Track frame offsets: 
#        150
#        12312
#        24953
#        39722
#        54075
#        64443
#        78476
#        94363
#        107070
#        121667
#        135038
#        149848
#        164852
#        179457
#        193662
#        206165
#        218737
#        233190
#        246823
#        262135
#        273640
#        288644
#
# Disc length: 4086 seconds
#
# Revision: 1
# Processed by: cddbd v1.5.2PL0 Copyright (c) Steve Scherf et al.
# Submitted via: ExactAudioCopy v0.99pb3
#
DISCID=550ff416
DTITLE=Fats Waller - If You Got To Ask, You Ain't Got It! - CD1 - Sing
DTITLE=s And Plays Fats Waller
DYEAR=2006
DGENRE=Jazz
TTITLE0=Honeysuckle Rose
TTITLE1=How Can You Face Me?
TTITLE2=The Panic Is On
TTITLE3=Sugar Rose
TTITLE4=I'm Crazy 'bout My Baby
TTITLE5=Lost Love
TTITLE6=Our Love Was Meant To Be
TTITLE7=The Joint Is Jumpin'
TTITLE8=A Hopeless Love Affair
TTITLE9=Hold My Hand
TTITLE10=Patty Cake, Patty Cake
TTITLE11=Honey Hush
TTITLE12=Anita
TTITLE13=Squeeze Me
TTITLE14=Old Grand Dad
TTITLE15=All That Meat And No Potatoes
TTITLE16=Ain't Nothing To It
TTITLE17=Bessie, Bessie, Bessie
TTITLE18=Cash For Your Trash
TTITLE19=You Must Be Losing Your Mind
TTITLE20=Up Jumped You With Love
TTITLE21=Ain't Misbehavin'
EXTD=
EXTT0=
EXTT1=
EXTT2=
EXTT3=
EXTT4=
EXTT5=
EXTT6=
EXTT7=
EXTT8=
EXTT9=
EXTT10=
EXTT11=
EXTT12=
EXTT13=
EXTT14=
EXTT15=
EXTT16=
EXTT17=
EXTT18=
EXTT19=
EXTT20=
EXTT21=
PLAYORDER=
